<?xml version="1.0" encoding="UTF-8" standalone="no"?><svg xmlns="http://www.w3.org/2000/svg" xmlns:xlink="http://www.w3.org/1999/xlink" clip-rule="evenodd" stroke-miterlimit="10" viewBox="0 0 1024 768"><desc>SVG generated by Keynote</desc><defs></defs><g transform="matrix(1.00, 0.00, -0.00, -1.00, 0.0, 768.0)"><path d="M 0.0 768.0 L 1024.0 768.0 L 1024.0 0.0 L 0.0 0.0 Z M 0.0 768.0 " fill="#FEFFFF"></path><text xml:space="preserve" font-family="Helvetica-Bold,Helvetica" font-weight="bold" font-size="32.8" fill="#000000" transform="matrix(1.00, 0.00, -0.00, -1.00, 370.9, 616.4)">W</text><text xml:space="preserve" font-family="Helvetica-Bold,Helvetica" font-weight="bold" font-size="32.8" fill="#000000" transform="matrix(1.00, 0.00, -0.00, -1.00, 401.8, 616.4)">h</text><text xml:space="preserve" font-family="Helvetica-Bold,Helvetica" font-weight="bold" font-size="32.8" fill="#000000" transform="matrix(1.00, 0.00, -0.00, -1.00, 421.8, 616.4)">e</text><text xml:space="preserve" font-family="Helvetica-Bold,Helvetica" font-weight="bold" font-size="32.8" fill="#000000" transform="matrix(1.00, 0.00, -0.00, -1.00, 440.0, 616.4)">r</text><text xml:space="preserve" font-family="Helvetica-Bold,Helvetica" font-weight="bold" font-size="32.8" fill="#000000" transform="matrix(1.00, 0.00, -0.00, -1.00, 452.8, 616.4)">e</text><text xml:space="preserve" font-family="Helvetica-Bold,Helvetica" font-weight="bold" font-size="32.8" fill="#000000" transform="matrix(1.00, 0.00, -0.00, -1.00, 471.0, 616.4)"> </text><text xml:space="preserve" font-family="Helvetica-Bold,Helvetica" font-weight="bold" font-size="32.8" fill="#000000" transform="matrix(1.00, 0.00, -0.00, -1.00, 480.1, 616.4)">d</text><text xml:space="preserve" font-family="Helvetica-Bold,Helvetica" font-weight="bold" font-size="32.8" fill="#000000" transform="matrix(1.00, 0.00, -0.00, -1.00, 500.1, 616.4)">o</text><text xml:space="preserve" font-family="Helvetica-Bold,Helvetica" font-weight="bold" font-size="32.8" fill="#000000" transform="matrix(1.00, 0.00, -0.00, -1.00, 520.1, 616.4)"> </text><text xml:space="preserve" font-family="Helvetica-Bold,Helvetica" font-weight="bold" font-size="32.8" fill="#000000" transform="matrix(1.00, 0.00, -0.00, -1.00, 529.2, 616.4)">y</text><text xml:space="preserve" font-family="Helvetica-Bold,Helvetica" font-weight="bold" font-size="32.8" fill="#000000" transform="matrix(1.00, 0.00, -0.00, -1.00, 547.5, 616.4)">o</text><text xml:space="preserve" font-family="Helvetica-Bold,Helvetica" font-weight="bold" font-size="32.8" fill="#000000" transform="matrix(1.00, 0.00, -0.00, -1.00, 567.5, 616.4)">u</text><text xml:space="preserve" font-family="Helvetica-Bold,Helvetica" font-weight="bold" font-size="32.8" fill="#000000" transform="matrix(1.00, 0.00, -0.00, -1.00, 587.5, 616.4)"> </text><text xml:space="preserve" font-family="Helvetica-Bold,Helvetica" font-weight="bold" font-size="32.8" fill="#000000" transform="matrix(1.00, 0.00, -0.00, -1.00, 596.6, 616.4)">g</text><text xml:space="preserve" font-family="Helvetica-Bold,Helvetica" font-weight="bold" font-size="32.8" fill="#000000" transform="matrix(1.00, 0.00, -0.00, -1.00, 616.6, 616.4)">e</text><text xml:space="preserve" font-family="Helvetica-Bold,Helvetica" font-weight="bold" font-size="32.8" fill="#000000" transform="matrix(1.00, 0.00, -0.00, -1.00, 634.8, 616.4)">t</text><text xml:space="preserve" font-family="Helvetica-Bold,Helvetica" font-weight="bold" font-size="32.8" fill="#000000" transform="matrix(1.00, 0.00, -0.00, -1.00, 645.7, 616.4)"> </text><text xml:space="preserve" font-family="Helvetica-Bold,Helvetica" font-weight="bold" font-size="32.8" fill="#000000" transform="matrix(1.00, 0.00, -0.00, -1.00, 654.8, 616.4)">i</text><text xml:space="preserve" font-family="Helvetica-Bold,Helvetica" font-weight="bold" font-size="32.8" fill="#000000" transform="matrix(1.00, 0.00, -0.00, -1.00, 663.9, 616.4)">t</text><text xml:space="preserve" font-family="Helvetica-Bold,Helvetica" font-weight="bold" font-size="32.8" fill="#000000" transform="matrix(1.00, 0.00, -0.00, -1.00, 674.8, 616.4)">:</text><text xml:space="preserve" font-family="Helvetica-Bold,Helvetica" font-weight="bold" font-size="32.8" fill="#000000" transform="matrix(1.00, 0.00, -0.00, -1.00, 372.7, 536.4)">h</text><text xml:space="preserve" font-family="Helvetica-Bold,Helvetica" font-weight="bold" font-size="32.8" fill="#000000" transform="matrix(1.00, 0.00, -0.00, -1.00, 392.7, 536.4)">t</text><text xml:space="preserve" font-family="Helvetica-Bold,Helvetica" font-weight="bold" font-size="32.8" fill="#000000" transform="matrix(1.00, 0.00, -0.00, -1.00, 403.6, 536.4)">t</text><text xml:space="preserve" font-family="Helvetica-Bold,Helvetica" font-weight="bold" font-size="32.8" fill="#000000" transform="matrix(1.00, 0.00, -0.00, -1.00, 414.5, 536.4)">p</text><text xml:space="preserve" font-family="Helvetica-Bold,Helvetica" font-weight="bold" font-size="32.8" fill="#000000" transform="matrix(1.00, 0.00, -0.00, -1.00, 434.5, 536.4)">s</text><text xml:space="preserve" font-family="Helvetica-Bold,Helvetica" font-weight="bold" font-size="32.8" fill="#000000" transform="matrix(1.00, 0.00, -0.00, -1.00, 452.8, 536.4)">:</text><text xml:space="preserve" font-family="Helvetica-Bold,Helvetica" font-weight="bold" font-size="32.8" fill="#000000" transform="matrix(1.00, 0.00, -0.00, -1.00, 463.7, 536.4)">/</text><text xml:space="preserve" font-family="Helvetica-Bold,Helvetica" font-weight="bold" font-size="32.8" fill="#000000" transform="matrix(1.00, 0.00, -0.00, -1.00, 472.8, 536.4)">/</text><text xml:space="preserve" font-family="Helvetica-Bold,Helvetica" font-weight="bold" font-size="32.8" fill="#000000" transform="matrix(1.00, 0.00, -0.00, -1.00, 481.9, 536.4)">g</text><text xml:space="preserve" font-family="Helvetica-Bold,Helvetica" font-weight="bold" font-size="32.8" fill="#000000" transform="matrix(1.00, 0.00, -0.00, -1.00, 501.9, 536.4)">i</text><text xml:space="preserve" font-family="Helvetica-Bold,Helvetica" font-weight="bold" font-size="32.8" fill="#000000" transform="matrix(1.00, 0.00, -0.00, -1.00, 511.0, 536.4)">t</text><text xml:space="preserve" font-family="Helvetica-Bold,Helvetica" font-weight="bold" font-size="32.8" fill="#000000" transform="matrix(1.00, 0.00, -0.00, -1.00, 521.9, 536.4)">-</text><text xml:space="preserve" font-family="Helvetica-Bold,Helvetica" font-weight="bold" font-size="32.8" fill="#000000" transform="matrix(1.00, 0.00, -0.00, -1.00, 532.8, 536.4)">s</text><text xml:space="preserve" font-family="Helvetica-Bold,Helvetica" font-weight="bold" font-size="32.8" fill="#000000" transform="matrix(1.00, 0.00, -0.00, -1.00, 551.0, 536.4)">c</text><text xml:space="preserve" font-family="Helvetica-Bold,Helvetica" font-weight="bold" font-size="32.8" fill="#000000" transform="matrix(1.00, 0.00, -0.00, -1.00, 569.2, 536.4)">m</text><text xml:space="preserve" font-family="Helvetica-Bold,Helvetica" font-weight="bold" font-size="32.8" fill="#000000" transform="matrix(1.00, 0.00, -0.00, -1.00, 598.4, 536.4)">.</text><text xml:space="preserve" font-family="Helvetica-Bold,Helvetica" font-weight="bold" font-size="32.8" fill="#000000" transform="matrix(1.00, 0.00, -0.00, -1.00, 607.5, 536.4)">c</text><text xml:space="preserve" font-family="Helvetica-Bold,Helvetica" font-weight="bold" font-size="32.8" fill="#000000" transform="matrix(1.00, 0.00, -0.00, -1.00, 625.7, 536.4)">o</text><text xml:space="preserve" font-family="Helvetica-Bold,Helvetica" font-weight="bold" font-size="32.8" fill="#000000" transform="matrix(1.00, 0.00, -0.00, -1.00, 645.7, 536.4)">m</text><text xml:space="preserve" font-family="Helvetica-Bold,Helvetica" font-weight="bold" font-size="32.8" fill="#000000" transform="matrix(1.00, 0.00, -0.00, -1.00, 674.8, 536.4)">/</text><g><clipPath id="clip0x618000aab2e0"><path d="M 371.7 532.1 L 683.9 532.1 L 683.9 535.7 L 371.7 535.7 Z M 371.7 532.1 "></path></clipPath><g clip-path="url(#clip0x618000aab2e0)"><path d="M 270.7 118.5 L 581.9 118.5 " fill="none" stroke="#000000" stroke-width="1.62" transform="matrix(1.00, 0.00, 0.00, -1.00, 102.0, 652.5)"></path></g></g><text xml:space="preserve" font-family="Helvetica-Light,Helvetica" font-size="32.8" fill="#000000" transform="matrix(1.00, 0.00, -0.00, -1.00, 408.5, 496.4)">(</text><text xml:space="preserve" font-family="Helvetica-Light,Helvetica" font-size="32.8" fill="#000000" transform="matrix(1.00, 0.00, -0.00, -1.00, 419.4, 496.4)">T</text><text xml:space="preserve" font-family="Helvetica-Light,Helvetica" font-size="32.8" fill="#000000" transform="matrix(1.00, 0.00, -0.00, -1.00, 437.6, 496.4)">h</text><text xml:space="preserve" font-family="Helvetica-Light,Helvetica" font-size="32.8" fill="#000000" transform="matrix(1.00, 0.00, -0.00, -1.00, 455.8, 496.4)">e</text><text xml:space="preserve" font-family="Helvetica-Light,Helvetica" font-size="32.8" fill="#000000" transform="matrix(1.00, 0.00, -0.00, -1.00, 474.0, 496.4)"> </text><text xml:space="preserve" font-family="Helvetica-Light,Helvetica" font-size="32.8" fill="#000000" transform="matrix(1.00, 0.00, -0.00, -1.00, 483.1, 496.4)">o</text><text xml:space="preserve" font-family="Helvetica-Light,Helvetica" font-size="32.8" fill="#000000" transform="matrix(1.00, 0.00, -0.00, -1.00, 501.3, 496.4)">f</text><text xml:space="preserve" font-family="Helvetica-Light,Helvetica" font-size="32.8" fill="#000000" transform="matrix(1.00, 0.00, -0.00, -1.00, 509.9, 496.4)">ﬁ</text><text xml:space="preserve" font-family="Helvetica-Light,Helvetica" font-size="32.8" fill="#000000" transform="matrix(1.00, 0.00, -0.00, -1.00, 526.2, 496.4)">c</text><text xml:space="preserve" font-family="Helvetica-Light,Helvetica" font-size="32.8" fill="#000000" transform="matrix(1.00, 0.00, -0.00, -1.00, 544.4, 496.4)">i</text><text xml:space="preserve" font-family="Helvetica-Light,Helvetica" font-size="32.8" fill="#000000" transform="matrix(1.00, 0.00, -0.00, -1.00, 551.7, 496.4)">a</text><text xml:space="preserve" font-family="Helvetica-Light,Helvetica" font-size="32.8" fill="#000000" transform="matrix(1.00, 0.00, -0.00, -1.00, 569.9, 496.4)">l</text><text xml:space="preserve" font-family="Helvetica-Light,Helvetica" font-size="32.8" fill="#000000" transform="matrix(1.00, 0.00, -0.00, -1.00, 577.2, 496.4)"> </text><text xml:space="preserve" font-family="Helvetica-Light,Helvetica" font-size="32.8" fill="#000000" transform="matrix(1.00, 0.00, -0.00, -1.00, 586.3, 496.4)">s</text><text xml:space="preserve" font-family="Helvetica-Light,Helvetica" font-size="32.8" fill="#000000" transform="matrix(1.00, 0.00, -0.00, -1.00, 602.7, 496.4)">i</text><text xml:space="preserve" font-family="Helvetica-Light,Helvetica" font-size="32.8" fill="#000000" transform="matrix(1.00, 0.00, -0.00, -1.00, 610.0, 496.4)">t</text><text xml:space="preserve" font-family="Helvetica-Light,Helvetica" font-size="32.8" fill="#000000" transform="matrix(1.00, 0.00, -0.00, -1.00, 619.1, 496.4)">e</text><text xml:space="preserve" font-family="Helvetica-Light,Helvetica" font-size="32.8" fill="#000000" transform="matrix(1.00, 0.00, -0.00, -1.00, 637.3, 496.4)">)</text><text xml:space="preserve" font-family="Helvetica-Light,Helvetica" font-size="32.8" fill="#000000" transform="matrix(1.00, 0.00, -0.00, -1.00, 648.2, 496.4)"> </text><text xml:space="preserve" font-family="Helvetica-Light,Helvetica" font-size="32.8" fill="#000000" transform="matrix(1.00, 0.00, -0.00, -1.00, 211.6, 416.4)">-</text><text xml:space="preserve" font-family="Helvetica-Light,Helvetica" font-size="32.8" fill="#000000" transform="matrix(1.00, 0.00, -0.00, -1.00, 222.5, 416.4)">H</text><text xml:space="preserve" font-family="Helvetica-Light,Helvetica" font-size="32.8" fill="#000000" transform="matrix(1.00, 0.00, -0.00, -1.00, 246.1, 416.4)">a</text><text xml:space="preserve" font-family="Helvetica-Light,Helvetica" font-size="32.8" fill="#000000" transform="matrix(1.00, 0.00, -0.00, -1.00, 264.3, 416.4)">s</text><text xml:space="preserve" font-family="Helvetica-Light,Helvetica" font-size="32.8" fill="#000000" transform="matrix(1.00, 0.00, -0.00, -1.00, 280.7, 416.4)"> </text><text xml:space="preserve" font-family="Helvetica-Light,Helvetica" font-size="32.8" fill="#000000" transform="matrix(1.00, 0.00, -0.00, -1.00, 289.8, 416.4)">i</text><text xml:space="preserve" font-family="Helvetica-Light,Helvetica" font-size="32.8" fill="#000000" transform="matrix(1.00, 0.00, -0.00, -1.00, 297.1, 416.4)">n</text><text xml:space="preserve" font-family="Helvetica-Light,Helvetica" font-size="32.8" fill="#000000" transform="matrix(1.00, 0.00, -0.00, -1.00, 315.3, 416.4)">s</text><text xml:space="preserve" font-family="Helvetica-Light,Helvetica" font-size="32.8" fill="#000000" transform="matrix(1.00, 0.00, -0.00, -1.00, 331.7, 416.4)">t</text><text xml:space="preserve" font-family="Helvetica-Light,Helvetica" font-size="32.8" fill="#000000" transform="matrix(1.00, 0.00, -0.00, -1.00, 340.8, 416.4)">a</text><text xml:space="preserve" font-family="Helvetica-Light,Helvetica" font-size="32.8" fill="#000000" transform="matrix(1.00, 0.00, -0.00, -1.00, 359.0, 416.4)">l</text><text xml:space="preserve" font-family="Helvetica-Light,Helvetica" font-size="32.8" fill="#000000" transform="matrix(1.00, 0.00, -0.00, -1.00, 366.3, 416.4)">l</text><text xml:space="preserve" font-family="Helvetica-Light,Helvetica" font-size="32.8" fill="#000000" transform="matrix(1.00, 0.00, -0.00, -1.00, 373.6, 416.4)">e</text><text xml:space="preserve" font-family="Helvetica-Light,Helvetica" font-size="32.8" fill="#000000" transform="matrix(1.00, 0.00, -0.00, -1.00, 391.8, 416.4)">r</text><text xml:space="preserve" font-family="Helvetica-Light,Helvetica" font-size="32.8" fill="#000000" transform="matrix(1.00, 0.00, -0.00, -1.00, 402.7, 416.4)">s</text><text xml:space="preserve" font-family="Helvetica-Light,Helvetica" font-size="32.8" fill="#000000" transform="matrix(1.00, 0.00, -0.00, -1.00, 419.1, 416.4)"> </text><text xml:space="preserve" font-family="Helvetica-Light,Helvetica" font-size="32.8" fill="#000000" transform="matrix(1.00, 0.00, -0.00, -1.00, 428.2, 416.4)">f</text><text xml:space="preserve" font-family="Helvetica-Light,Helvetica" font-size="32.8" fill="#000000" transform="matrix(1.00, 0.00, -0.00, -1.00, 437.3, 416.4)">o</text><text xml:space="preserve" font-family="Helvetica-Light,Helvetica" font-size="32.8" fill="#000000" transform="matrix(1.00, 0.00, -0.00, -1.00, 455.5, 416.4)">r</text><text xml:space="preserve" font-family="Helvetica-Light,Helvetica" font-size="32.8" fill="#000000" transform="matrix(1.00, 0.00, -0.00, -1.00, 466.4, 416.4)"> </text><text xml:space="preserve" font-family="Helvetica-Light,Helvetica" font-size="32.8" fill="#000000" transform="matrix(1.00, 0.00, -0.00, -1.00, 475.5, 416.4)">O</text><text xml:space="preserve" font-family="Helvetica-Light,Helvetica" font-size="32.8" fill="#000000" transform="matrix(1.00, 0.00, -0.00, -1.00, 501.0, 416.4)">S</text><text xml:space="preserve" font-family="Helvetica-Light,Helvetica" font-size="32.8" fill="#000000" transform="matrix(1.00, 0.00, -0.00, -1.00, 521.0, 416.4)">X</text><text xml:space="preserve" font-family="Helvetica-Light,Helvetica" font-size="32.8" fill="#000000" transform="matrix(1.00, 0.00, -0.00, -1.00, 541.0, 416.4)">,</text><text xml:space="preserve" font-family="Helvetica-Light,Helvetica" font-size="32.8" fill="#000000" transform="matrix(1.00, 0.00, -0.00, -1.00, 550.1, 416.4)"> </text><text xml:space="preserve" font-family="Helvetica-Light,Helvetica" font-size="32.8" fill="#000000" transform="matrix(1.00, 0.00, -0.00, -1.00, 559.3, 416.4)">W</text><text xml:space="preserve" font-family="Helvetica-Light,Helvetica" font-size="32.8" fill="#000000" transform="matrix(1.00, 0.00, -0.00, -1.00, 588.4, 416.4)">i</text><text xml:space="preserve" font-family="Helvetica-Light,Helvetica" font-size="32.8" fill="#000000" transform="matrix(1.00, 0.00, -0.00, -1.00, 595.7, 416.4)">n</text><text xml:space="preserve" font-family="Helvetica-Light,Helvetica" font-size="32.8" fill="#000000" transform="matrix(1.00, 0.00, -0.00, -1.00, 613.9, 416.4)">d</text><text xml:space="preserve" font-family="Helvetica-Light,Helvetica" font-size="32.8" fill="#000000" transform="matrix(1.00, 0.00, -0.00, -1.00, 633.9, 416.4)">o</text><text xml:space="preserve" font-family="Helvetica-Light,Helvetica" font-size="32.8" fill="#000000" transform="matrix(1.00, 0.00, -0.00, -1.00, 652.1, 416.4)">w</text><text xml:space="preserve" font-family="Helvetica-Light,Helvetica" font-size="32.8" fill="#000000" transform="matrix(1.00, 0.00, -0.00, -1.00, 675.8, 416.4)">s</text><text xml:space="preserve" font-family="Helvetica-Light,Helvetica" font-size="32.8" fill="#000000" transform="matrix(1.00, 0.00, -0.00, -1.00, 692.1, 416.4)"> </text><text xml:space="preserve" font-family="Helvetica-Light,Helvetica" font-size="32.8" fill="#000000" transform="matrix(1.00, 0.00, -0.00, -1.00, 701.2, 416.4)">a</text><text xml:space="preserve" font-family="Helvetica-Light,Helvetica" font-size="32.8" fill="#000000" transform="matrix(1.00, 0.00, -0.00, -1.00, 719.5, 416.4)">n</text><text xml:space="preserve" font-family="Helvetica-Light,Helvetica" font-size="32.8" fill="#000000" transform="matrix(1.00, 0.00, -0.00, -1.00, 737.7, 416.4)">d</text><text xml:space="preserve" font-family="Helvetica-Light,Helvetica" font-size="32.8" fill="#000000" transform="matrix(1.00, 0.00, -0.00, -1.00, 757.7, 416.4)"> </text><text xml:space="preserve" font-family="Helvetica-Light,Helvetica" font-size="32.8" fill="#000000" transform="matrix(1.00, 0.00, -0.00, -1.00, 766.8, 416.4)">L</text><text xml:space="preserve" font-family="Helvetica-Light,Helvetica" font-size="32.8" fill="#000000" transform="matrix(1.00, 0.00, -0.00, -1.00, 785.0, 416.4)">i</text><text xml:space="preserve" font-family="Helvetica-Light,Helvetica" font-size="32.8" fill="#000000" transform="matrix(1.00, 0.00, -0.00, -1.00, 792.3, 416.4)">n</text><text xml:space="preserve" font-family="Helvetica-Light,Helvetica" font-size="32.8" fill="#000000" transform="matrix(1.00, 0.00, -0.00, -1.00, 810.5, 416.4)">u</text><text xml:space="preserve" font-family="Helvetica-Light,Helvetica" font-size="32.8" fill="#000000" transform="matrix(1.00, 0.00, -0.00, -1.00, 828.7, 416.4)">x</text><text xml:space="preserve" font-family="Helvetica-Light,Helvetica" font-size="32.8" fill="#000000" transform="matrix(1.00, 0.00, -0.00, -1.00, 845.1, 416.4)"> </text><text xml:space="preserve" font-family="Helvetica-Light,Helvetica" font-size="32.8" fill="#000000" transform="matrix(1.00, 0.00, -0.00, -1.00, 341.7, 336.4)">-</text><text xml:space="preserve" font-family="Helvetica-Light,Helvetica" font-size="32.8" fill="#000000" transform="matrix(1.00, 0.00, -0.00, -1.00, 352.6, 336.4)">I</text><text xml:space="preserve" font-family="Helvetica-Light,Helvetica" font-size="32.8" fill="#000000" transform="matrix(1.00, 0.00, -0.00, -1.00, 361.7, 336.4)">t</text><text xml:space="preserve" font-family="Helvetica-Light,Helvetica" font-size="32.8" fill="#000000" transform="matrix(1.00, 0.00, -0.00, -1.00, 370.8, 336.4)">’</text><text xml:space="preserve" font-family="Helvetica-Light,Helvetica" font-size="32.8" fill="#000000" transform="matrix(1.00, 0.00, -0.00, -1.00, 375.7, 336.4)">s</text><text xml:space="preserve" font-family="Helvetica-Light,Helvetica" font-size="32.8" fill="#000000" transform="matrix(1.00, 0.00, -0.00, -1.00, 392.0, 336.4)"> </text><text xml:space="preserve" font-family="Helvetica-Light,Helvetica" font-size="32.8" fill="#000000" transform="matrix(1.00, 0.00, -0.00, -1.00, 401.1, 336.4)">f</text><text xml:space="preserve" font-family="Helvetica-Light,Helvetica" font-size="32.8" fill="#000000" transform="matrix(1.00, 0.00, -0.00, -1.00, 410.2, 336.4)">r</text><text xml:space="preserve" font-family="Helvetica-Light,Helvetica" font-size="32.8" fill="#000000" transform="matrix(1.00, 0.00, -0.00, -1.00, 420.6, 336.4)">e</text><text xml:space="preserve" font-family="Helvetica-Light,Helvetica" font-size="32.8" fill="#000000" transform="matrix(1.00, 0.00, -0.00, -1.00, 438.8, 336.4)">e</text><text xml:space="preserve" font-family="Helvetica-Light,Helvetica" font-size="32.8" fill="#000000" transform="matrix(1.00, 0.00, -0.00, -1.00, 457.0, 336.4)"> </text><text xml:space="preserve" font-family="Helvetica-Light,Helvetica" font-size="32.8" fill="#000000" transform="matrix(1.00, 0.00, -0.00, -1.00, 466.1, 336.4)">a</text><text xml:space="preserve" font-family="Helvetica-Light,Helvetica" font-size="32.8" fill="#000000" transform="matrix(1.00, 0.00, -0.00, -1.00, 484.3, 336.4)">n</text><text xml:space="preserve" font-family="Helvetica-Light,Helvetica" font-size="32.8" fill="#000000" transform="matrix(1.00, 0.00, -0.00, -1.00, 502.5, 336.4)">d</text><text xml:space="preserve" font-family="Helvetica-Light,Helvetica" font-size="32.8" fill="#000000" transform="matrix(1.00, 0.00, -0.00, -1.00, 522.5, 336.4)"> </text><text xml:space="preserve" font-family="Helvetica-Light,Helvetica" font-size="32.8" fill="#000000" transform="matrix(1.00, 0.00, -0.00, -1.00, 531.7, 336.4)">o</text><text xml:space="preserve" font-family="Helvetica-Light,Helvetica" font-size="32.8" fill="#000000" transform="matrix(1.00, 0.00, -0.00, -1.00, 549.9, 336.4)">p</text><text xml:space="preserve" font-family="Helvetica-Light,Helvetica" font-size="32.8" fill="#000000" transform="matrix(1.00, 0.00, -0.00, -1.00, 569.9, 336.4)">e</text><text xml:space="preserve" font-family="Helvetica-Light,Helvetica" font-size="32.8" fill="#000000" transform="matrix(1.00, 0.00, -0.00, -1.00, 588.1, 336.4)">n</text><text xml:space="preserve" font-family="Helvetica-Light,Helvetica" font-size="32.8" fill="#000000" transform="matrix(1.00, 0.00, -0.00, -1.00, 606.3, 336.4)"> </text><text xml:space="preserve" font-family="Helvetica-Light,Helvetica" font-size="32.8" fill="#000000" transform="matrix(1.00, 0.00, -0.00, -1.00, 615.4, 336.4)">s</text><text xml:space="preserve" font-family="Helvetica-Light,Helvetica" font-size="32.8" fill="#000000" transform="matrix(1.00, 0.00, -0.00, -1.00, 631.8, 336.4)">o</text><text xml:space="preserve" font-family="Helvetica-Light,Helvetica" font-size="32.8" fill="#000000" transform="matrix(1.00, 0.00, -0.00, -1.00, 650.0, 336.4)">u</text><text xml:space="preserve" font-family="Helvetica-Light,Helvetica" font-size="32.8" fill="#000000" transform="matrix(1.00, 0.00, -0.00, -1.00, 668.2, 336.4)">r</text><text xml:space="preserve" font-family="Helvetica-Light,Helvetica" font-size="32.8" fill="#000000" transform="matrix(1.00, 0.00, -0.00, -1.00, 678.6, 336.4)">c</text><text xml:space="preserve" font-family="Helvetica-Light,Helvetica" font-size="32.8" fill="#000000" transform="matrix(1.00, 0.00, -0.00, -1.00, 696.8, 336.4)">e</text><text xml:space="preserve" font-family="Helvetica-Light,Helvetica" font-size="32.8" fill="#000000" transform="matrix(1.00, 0.00, -0.00, -1.00, 715.0, 336.4)"> </text><text xml:space="preserve" font-family="Helvetica-Light,Helvetica" font-size="32.8" fill="#000000" transform="matrix(1.00, 0.00, -0.00, -1.00, 204.2, 256.4)">-</text><text xml:space="preserve" font-family="Helvetica-Light,Helvetica" font-size="32.8" fill="#000000" transform="matrix(1.00, 0.00, -0.00, -1.00, 215.1, 256.4)">A</text><text xml:space="preserve" font-family="Helvetica-Light,Helvetica" font-size="32.8" fill="#000000" transform="matrix(1.00, 0.00, -0.00, -1.00, 236.4, 256.4)">w</text><text xml:space="preserve" font-family="Helvetica-Light,Helvetica" font-size="32.8" fill="#000000" transform="matrix(1.00, 0.00, -0.00, -1.00, 260.1, 256.4)">e</text><text xml:space="preserve" font-family="Helvetica-Light,Helvetica" font-size="32.8" fill="#000000" transform="matrix(1.00, 0.00, -0.00, -1.00, 278.3, 256.4)">s</text><text xml:space="preserve" font-family="Helvetica-Light,Helvetica" font-size="32.8" fill="#000000" transform="matrix(1.00, 0.00, -0.00, -1.00, 294.7, 256.4)">o</text><text xml:space="preserve" font-family="Helvetica-Light,Helvetica" font-size="32.8" fill="#000000" transform="matrix(1.00, 0.00, -0.00, -1.00, 312.9, 256.4)">m</text><text xml:space="preserve" font-family="Helvetica-Light,Helvetica" font-size="32.8" fill="#000000" transform="matrix(1.00, 0.00, -0.00, -1.00, 340.2, 256.4)">e</text><text xml:space="preserve" font-family="Helvetica-Light,Helvetica" font-size="32.8" fill="#000000" transform="matrix(1.00, 0.00, -0.00, -1.00, 358.4, 256.4)"> </text><text xml:space="preserve" font-family="Helvetica-Light,Helvetica" font-size="32.8" fill="#000000" transform="matrix(1.00, 0.00, -0.00, -1.00, 367.5, 256.4)">f</text><text xml:space="preserve" font-family="Helvetica-Light,Helvetica" font-size="32.8" fill="#000000" transform="matrix(1.00, 0.00, -0.00, -1.00, 376.6, 256.4)">r</text><text xml:space="preserve" font-family="Helvetica-Light,Helvetica" font-size="32.8" fill="#000000" transform="matrix(1.00, 0.00, -0.00, -1.00, 386.9, 256.4)">e</text><text xml:space="preserve" font-family="Helvetica-Light,Helvetica" font-size="32.8" fill="#000000" transform="matrix(1.00, 0.00, -0.00, -1.00, 405.1, 256.4)">e</text><text xml:space="preserve" font-family="Helvetica-Light,Helvetica" font-size="32.8" fill="#000000" transform="matrix(1.00, 0.00, -0.00, -1.00, 423.3, 256.4)"> </text><text xml:space="preserve" font-family="Helvetica-Light,Helvetica" font-size="32.8" fill="#000000" transform="matrix(1.00, 0.00, -0.00, -1.00, 432.4, 256.4)">b</text><text xml:space="preserve" font-family="Helvetica-Light,Helvetica" font-size="32.8" fill="#000000" transform="matrix(1.00, 0.00, -0.00, -1.00, 452.5, 256.4)">o</text><text xml:space="preserve" font-family="Helvetica-Light,Helvetica" font-size="32.8" fill="#000000" transform="matrix(1.00, 0.00, -0.00, -1.00, 470.7, 256.4)">o</text><text xml:space="preserve" font-family="Helvetica-Light,Helvetica" font-size="32.8" fill="#000000" transform="matrix(1.00, 0.00, -0.00, -1.00, 488.9, 256.4)">k</text><text xml:space="preserve" font-family="Helvetica-Light,Helvetica" font-size="32.8" fill="#000000" transform="matrix(1.00, 0.00, -0.00, -1.00, 505.3, 256.4)"> </text><text xml:space="preserve" font-family="Helvetica-Light,Helvetica" font-size="32.8" fill="#000000" transform="matrix(1.00, 0.00, -0.00, -1.00, 514.4, 256.4)">o</text><text xml:space="preserve" font-family="Helvetica-Light,Helvetica" font-size="32.8" fill="#000000" transform="matrix(1.00, 0.00, -0.00, -1.00, 532.6, 256.4)">n</text><text xml:space="preserve" font-family="Helvetica-Light,Helvetica" font-size="32.8" fill="#000000" transform="matrix(1.00, 0.00, -0.00, -1.00, 550.8, 256.4)">l</text><text xml:space="preserve" font-family="Helvetica-Light,Helvetica" font-size="32.8" fill="#000000" transform="matrix(1.00, 0.00, -0.00, -1.00, 558.1, 256.4)">i</text><text xml:space="preserve" font-family="Helvetica-Light,Helvetica" font-size="32.8" fill="#000000" transform="matrix(1.00, 0.00, -0.00, -1.00, 565.3, 256.4)">n</text><text xml:space="preserve" font-family="Helvetica-Light,Helvetica" font-size="32.8" fill="#000000" transform="matrix(1.00, 0.00, -0.00, -1.00, 583.6, 256.4)">e</text><text xml:space="preserve" font-family="Helvetica-Light,Helvetica" font-size="32.8" fill="#000000" transform="matrix(1.00, 0.00, -0.00, -1.00, 601.8, 256.4)"> </text><text xml:space="preserve" font-family="Helvetica-Light,Helvetica" font-size="32.8" fill="#000000" transform="matrix(1.00, 0.00, -0.00, -1.00, 610.9, 256.4)">f</text><text xml:space="preserve" font-family="Helvetica-Light,Helvetica" font-size="32.8" fill="#000000" transform="matrix(1.00, 0.00, -0.00, -1.00, 620.0, 256.4)">o</text><text xml:space="preserve" font-family="Helvetica-Light,Helvetica" font-size="32.8" fill="#000000" transform="matrix(1.00, 0.00, -0.00, -1.00, 638.2, 256.4)">r</text><text xml:space="preserve" font-family="Helvetica-Light,Helvetica" font-size="32.8" fill="#000000" transform="matrix(1.00, 0.00, -0.00, -1.00, 649.1, 256.4)"> </text><text xml:space="preserve" font-family="Helvetica-Light,Helvetica" font-size="32.8" fill="#000000" transform="matrix(1.00, 0.00, -0.00, -1.00, 658.2, 256.4)">g</text><text xml:space="preserve" font-family="Helvetica-Light,Helvetica" font-size="32.8" fill="#000000" transform="matrix(1.00, 0.00, -0.00, -1.00, 678.2, 256.4)">o</text><text xml:space="preserve" font-family="Helvetica-Light,Helvetica" font-size="32.8" fill="#000000" transform="matrix(1.00, 0.00, -0.00, -1.00, 696.5, 256.4)">i</text><text xml:space="preserve" font-family="Helvetica-Light,Helvetica" font-size="32.8" fill="#000000" transform="matrix(1.00, 0.00, -0.00, -1.00, 703.7, 256.4)">n</text><text xml:space="preserve" font-family="Helvetica-Light,Helvetica" font-size="32.8" fill="#000000" transform="matrix(1.00, 0.00, -0.00, -1.00, 721.9, 256.4)">g</text><text xml:space="preserve" font-family="Helvetica-Light,Helvetica" font-size="32.8" fill="#000000" transform="matrix(1.00, 0.00, -0.00, -1.00, 742.0, 256.4)"> </text><text xml:space="preserve" font-family="Helvetica-Light,Helvetica" font-size="32.8" fill="#000000" transform="matrix(1.00, 0.00, -0.00, -1.00, 751.1, 256.4)">f</text><text xml:space="preserve" font-family="Helvetica-Light,Helvetica" font-size="32.8" fill="#000000" transform="matrix(1.00, 0.00, -0.00, -1.00, 760.2, 256.4)">u</text><text xml:space="preserve" font-family="Helvetica-Light,Helvetica" font-size="32.8" fill="#000000" transform="matrix(1.00, 0.00, -0.00, -1.00, 778.4, 256.4)">r</text><text xml:space="preserve" font-family="Helvetica-Light,Helvetica" font-size="32.8" fill="#000000" transform="matrix(1.00, 0.00, -0.00, -1.00, 789.9, 256.4)">t</text><text xml:space="preserve" font-family="Helvetica-Light,Helvetica" font-size="32.8" fill="#000000" transform="matrix(1.00, 0.00, -0.00, -1.00, 799.0, 256.4)">h</text><text xml:space="preserve" font-family="Helvetica-Light,Helvetica" font-size="32.8" fill="#000000" transform="matrix(1.00, 0.00, -0.00, -1.00, 817.2, 256.4)">e</text><text xml:space="preserve" font-family="Helvetica-Light,Helvetica" font-size="32.8" fill="#000000" transform="matrix(1.00, 0.00, -0.00, -1.00, 835.4, 256.4)">r</text><text xml:space="preserve" font-family="Helvetica-Light,Helvetica" font-size="32.8" fill="#000000" transform="matrix(1.00, 0.00, -0.00, -1.00, 843.3, 256.4)">.</text><text xml:space="preserve" font-family="Helvetica-Light,Helvetica" font-size="32.8" fill="#000000" transform="matrix(1.00, 0.00, -0.00, -1.00, 852.4, 256.4)"> </text><text xml:space="preserve" font-family="Helvetica-Light,Helvetica" font-size="32.8" fill="#000000" transform="matrix(1.00, 0.00, -0.00, -1.00, 301.7, 216.4)">h</text><text xml:space="preserve" font-family="Helvetica-Light,Helvetica" font-size="32.8" fill="#000000" transform="matrix(1.00, 0.00, -0.00, -1.00, 319.9, 216.4)">t</text><text xml:space="preserve" font-family="Helvetica-Light,Helvetica" font-size="32.8" fill="#000000" transform="matrix(1.00, 0.00, -0.00, -1.00, 329.0, 216.4)">t</text><text xml:space="preserve" font-family="Helvetica-Light,Helvetica" font-size="32.8" fill="#000000" transform="matrix(1.00, 0.00, -0.00, -1.00, 338.1, 216.4)">p</text><text xml:space="preserve" font-family="Helvetica-Light,Helvetica" font-size="32.8" fill="#000000" transform="matrix(1.00, 0.00, -0.00, -1.00, 358.1, 216.4)">s</text><text xml:space="preserve" font-family="Helvetica-Light,Helvetica" font-size="32.8" fill="#000000" transform="matrix(1.00, 0.00, -0.00, -1.00, 374.5, 216.4)">:</text><text xml:space="preserve" font-family="Helvetica-Light,Helvetica" font-size="32.8" fill="#000000" transform="matrix(1.00, 0.00, -0.00, -1.00, 383.6, 216.4)">/</text><text xml:space="preserve" font-family="Helvetica-Light,Helvetica" font-size="32.8" fill="#000000" transform="matrix(1.00, 0.00, -0.00, -1.00, 392.7, 216.4)">/</text><text xml:space="preserve" font-family="Helvetica-Light,Helvetica" font-size="32.8" fill="#000000" transform="matrix(1.00, 0.00, -0.00, -1.00, 401.8, 216.4)">g</text><text xml:space="preserve" font-family="Helvetica-Light,Helvetica" font-size="32.8" fill="#000000" transform="matrix(1.00, 0.00, -0.00, -1.00, 421.8, 216.4)">i</text><text xml:space="preserve" font-family="Helvetica-Light,Helvetica" font-size="32.8" fill="#000000" transform="matrix(1.00, 0.00, -0.00, -1.00, 429.1, 216.4)">t</text><text xml:space="preserve" font-family="Helvetica-Light,Helvetica" font-size="32.8" fill="#000000" transform="matrix(1.00, 0.00, -0.00, -1.00, 438.2, 216.4)">-</text><text xml:space="preserve" font-family="Helvetica-Light,Helvetica" font-size="32.8" fill="#000000" transform="matrix(1.00, 0.00, -0.00, -1.00, 449.1, 216.4)">s</text><text xml:space="preserve" font-family="Helvetica-Light,Helvetica" font-size="32.8" fill="#000000" transform="matrix(1.00, 0.00, -0.00, -1.00, 465.5, 216.4)">c</text><text xml:space="preserve" font-family="Helvetica-Light,Helvetica" font-size="32.8" fill="#000000" transform="matrix(1.00, 0.00, -0.00, -1.00, 483.7, 216.4)">m</text><text xml:space="preserve" font-family="Helvetica-Light,Helvetica" font-size="32.8" fill="#000000" transform="matrix(1.00, 0.00, -0.00, -1.00, 511.0, 216.4)">.</text><text xml:space="preserve" font-family="Helvetica-Light,Helvetica" font-size="32.8" fill="#000000" transform="matrix(1.00, 0.00, -0.00, -1.00, 520.1, 216.4)">c</text><text xml:space="preserve" font-family="Helvetica-Light,Helvetica" font-size="32.8" fill="#000000" transform="matrix(1.00, 0.00, -0.00, -1.00, 538.3, 216.4)">o</text><text xml:space="preserve" font-family="Helvetica-Light,Helvetica" font-size="32.8" fill="#000000" transform="matrix(1.00, 0.00, -0.00, -1.00, 556.5, 216.4)">m</text><text xml:space="preserve" font-family="Helvetica-Light,Helvetica" font-size="32.8" fill="#000000" transform="matrix(1.00, 0.00, -0.00, -1.00, 583.8, 216.4)">/</text><text xml:space="preserve" font-family="Helvetica-Light,Helvetica" font-size="32.8" fill="#000000" transform="matrix(1.00, 0.00, -0.00, -1.00, 592.9, 216.4)">b</text><text xml:space="preserve" font-family="Helvetica-Light,Helvetica" font-size="32.8" fill="#000000" transform="matrix(1.00, 0.00, -0.00, -1.00, 612.9, 216.4)">o</text><text xml:space="preserve" font-family="Helvetica-Light,Helvetica" font-size="32.8" fill="#000000" transform="matrix(1.00, 0.00, -0.00, -1.00, 631.2, 216.4)">o</text><text xml:space="preserve" font-family="Helvetica-Light,Helvetica" font-size="32.8" fill="#000000" transform="matrix(1.00, 0.00, -0.00, -1.00, 649.4, 216.4)">k</text><text xml:space="preserve" font-family="Helvetica-Light,Helvetica" font-size="32.8" fill="#000000" transform="matrix(1.00, 0.00, -0.00, -1.00, 665.8, 216.4)">/</text><text xml:space="preserve" font-family="Helvetica-Light,Helvetica" font-size="32.8" fill="#000000" transform="matrix(1.00, 0.00, -0.00, -1.00, 674.9, 216.4)">e</text><text xml:space="preserve" font-family="Helvetica-Light,Helvetica" font-size="32.8" fill="#000000" transform="matrix(1.00, 0.00, -0.00, -1.00, 693.1, 216.4)">n</text><text xml:space="preserve" font-family="Helvetica-Light,Helvetica" font-size="32.8" fill="#000000" transform="matrix(1.00, 0.00, -0.00, -1.00, 711.3, 216.4)">/</text><text xml:space="preserve" font-family="Helvetica-Light,Helvetica" font-size="32.8" fill="#000000" transform="matrix(1.00, 0.00, -0.00, -1.00, 720.4, 216.4)">v</text><text xml:space="preserve" font-family="Helvetica-Light,Helvetica" font-size="32.8" fill="#000000" transform="matrix(1.00, 0.00, -0.00, -1.00, 736.8, 216.4)">2</text><text xml:space="preserve" font-family="Helvetica-Light,Helvetica" font-size="32.8" fill="#000000" transform="matrix(1.00, 0.00, -0.00, -1.00, 755.0, 216.4)"> </text><g><clipPath id="clip0x618000aa7200"><path d="M 300.7 212.1 L 755.0 212.1 L 755.0 215.8 L 300.7 215.8 Z M 300.7 212.1 "></path></clipPath><g clip-path="url(#clip0x618000aa7200)"><path d="M 199.7 438.5 L 653.0 438.5 " fill="none" stroke="#000000" stroke-width="1.64" transform="matrix(1.00, 0.00, 0.00, -1.00, 102.0, 652.5)"></path></g></g></g></svg>